<svg xmlns="http://www.w3.org/2000/svg" viewBox="0 0 64 64">
  <defs>
    <linearGradient id="g" x1="0" y1="0" x2="1" y2="1">
      <stop offset="0" stop-color="#0ea5e9"/>
      <stop offset="1" stop-color="#2563eb"/>
    </linearGradient>
  </defs>
  <rect width="64" height="64" rx="14" fill="url(#g)"/>
  <!-- Three rows of keys, one of them pressed. -->
  <g fill="#ffffff" fill-opacity="0.5">
    <rect x="10" y="19" width="9" height="8" rx="2"/>
    <rect x="21" y="19" width="9" height="8" rx="2"/>
    <rect x="32" y="19" width="9" height="8" rx="2"/>
    <rect x="43" y="19" width="11" height="8" rx="2"/>
    <rect x="10" y="29" width="12" height="8" rx="2"/>
    <rect x="35" y="29" width="8" height="8" rx="2"/>
    <rect x="45" y="29" width="9" height="8" rx="2"/>
    <rect x="10" y="39" width="9" height="8" rx="2"/>
    <rect x="21" y="39" width="22" height="8" rx="2"/>
    <rect x="45" y="39" width="9" height="8" rx="2"/>
  </g>
  <rect x="24" y="29" width="9" height="8" rx="2" fill="#ffffff"/>
</svg>
