<svg xmlns="http://www.w3.org/2000/svg" viewBox="0 0 64 64">
  <defs>
    <linearGradient id="g" x1="0" y1="0" x2="1" y2="1">
      <stop offset="0" stop-color="#a78bfa"/>
      <stop offset="1" stop-color="#6d28d9"/>
    </linearGradient>
  </defs>
  <rect width="64" height="64" rx="14" fill="url(#g)"/>
  <!-- Lucide `clipboard-list` (ISC), scaled from its 24-unit grid to 40. -->
  <g transform="translate(12 12) scale(1.6667)" fill="none" stroke="#ffffff"
     stroke-width="2" stroke-linecap="round" stroke-linejoin="round">
    <rect width="8" height="4" x="8" y="2" rx="1" ry="1"/>
    <path d="M16 4h2a2 2 0 0 1 2 2v14a2 2 0 0 1-2 2H6a2 2 0 0 1-2-2V6a2 2 0 0 1 2-2h2"/>
    <path d="M12 11h4"/>
    <path d="M12 16h4"/>
    <path d="M8 11h.01"/>
    <path d="M8 16h.01"/>
  </g>
</svg>
